<?xml version="1.0" encoding="utf-8"?>
<!-- Generator: Adobe Illustrator 23.1.0, SVG Export Plug-In . SVG Version: 6.00 Build 0)  -->
<svg version="1.1" id="Слой_1" xmlns="http://www.w3.org/2000/svg" xmlns:xlink="http://www.w3.org/1999/xlink" x="0px" y="0px"
	 viewBox="0 0 1133.9 1133.9" style="enable-background:new 0 0 1133.9 1133.9;" xml:space="preserve">
<style type="text/css">
	.st0{fill:none;stroke:#000000;stroke-width:7;stroke-linecap:round;stroke-linejoin:round;stroke-miterlimit:10;}
	.st1{fill:none;stroke:#000000;stroke-width:0.48;stroke-linecap:round;stroke-linejoin:round;stroke-miterlimit:10;}
	.st2{fill:none;stroke:#000000;stroke-width:1.68;stroke-linecap:round;stroke-linejoin:round;stroke-miterlimit:10;}
	.st3{fill:none;}
</style>
<g>
	<path class="st0" d="M851.1,584.8L957,541.2L851.1,584.8z"/>
	<path class="st0" d="M812.9,1090l-140.5,57.8L812.9,1090z"/>
	<path class="st0" d="M853.8,459.4v28.5V459.4z"/>
	<path class="st0" d="M481.1,307.3l-27.6,11.6L481.1,307.3z"/>
	<path class="st0" d="M918.7,710.2l34.7-14.2L918.7,710.2z"/>
	<path class="st0" d="M338.8,797.4l133.4-55.1L338.8,797.4z"/>
	<path class="st0" d="M860.9,149.8l-7.1,338L860.9,149.8z"/>
	<path class="st0" d="M823.6,596.3l27.6-11.6L823.6,596.3z"/>
	<path class="st0" d="M338.8,797.4l-3.6,154.8L338.8,797.4z"/>
	<path class="st0" d="M918.7,710.2l2.7-125.4L918.7,710.2z"/>
	<path class="st0" d="M335.2,952.1l34.7-14.2L335.2,952.1z"/>
	<path class="st0" d="M851.1,584.8v29.4V584.8z"/>
	<path class="st0" d="M671.5,1186.9l169-70.3L671.5,1186.9z"/>
	<path class="st0" d="M958.8,444.2l-105,43.6L958.8,444.2z"/>
	<path class="st0" d="M924.1,430l-68.5-25.8L924.1,430z"/>
	<path class="st0" d="M747.1,478.9l-1.8,80.1L747.1,478.9z"/>
	<path class="st0" d="M860.9,149.8l-28.5,11.6L860.9,149.8z"/>
	<path class="st0" d="M472.2,742.2l-10.7,493.6L472.2,742.2z"/>
	<path class="st0" d="M867.1,508.3l0.9-25.8L867.1,508.3z"/>
	<path class="st0" d="M344.1,546.5l-3.6,154.8L344.1,546.5z"/>
	<path class="st0" d="M745.3,559l121.9-50.7L745.3,559z"/>
	<path class="st0" d="M453.5,318.8l-7.1,309.5L453.5,318.8z"/>
	<path class="st0" d="M858.2,278.8l69.4,25.8L858.2,278.8z"/>
	<path class="st0" d="M474,645.3l-133.4,56L474,645.3z"/>
	<path class="st0" d="M924.1,430l3.6-125.4L924.1,430z"/>
	<path class="st0" d="M924.1,430l-70.3,29.4L924.1,430z"/>
	<path class="st0" d="M481.1,307.3l-7.1,338L481.1,307.3z"/>
	<path class="st0" d="M851.1,584.8l-10.7,531.9L851.1,584.8z"/>
	<path class="st0" d="M372.6,812.5l70.3-29.4L372.6,812.5z"/>
	<path class="st0" d="M853.8,487.8l-28.5,12.5L853.8,487.8z"/>
	<path class="st0" d="M957,541.2l-89.8-32.9L957,541.2z"/>
	<path class="st0" d="M858.2,251.2l104.1,38.2L858.2,251.2z"/>
	<path class="st0" d="M962.3,289.5l-34.7,15.1L962.3,289.5z"/>
	<path class="st0" d="M378.8,531.4l-34.7,15.1L378.8,531.4z"/>
	<path class="st0" d="M442.9,783.1l-10.7,502.5L442.9,783.1z"/>
	<path class="st0" d="M745.3,559l43.6,8L745.3,559z"/>
	<path class="st0" d="M788.9,567l36.5,8.9L788.9,567z"/>
	<path class="st0" d="M825.3,575.9l25.8,8.9L825.3,575.9z"/>
	<path class="st0" d="M918.7,710.2l-69.4-24.9L918.7,710.2z"/>
	<path class="st0" d="M953.4,696l3.6-154.8L953.4,696z"/>
	<path class="st0" d="M372.6,812.5l-2.7,125.4L372.6,812.5z"/>
	<path class="st0" d="M446.4,628.4l-70.3,29.4L446.4,628.4z"/>
	<path class="st0" d="M851.1,614.1l70.3-29.4L851.1,614.1z"/>
	<path class="st0" d="M823.6,596.3L812.9,1090L823.6,596.3z"/>
	<path class="st0" d="M832.5,161.4l-7.1,338.9L832.5,161.4z"/>
	<path class="st0" d="M378.8,531.4l-2.7,126.3L378.8,531.4z"/>
	<path class="st0" d="M958.8,444.2l3.6-154.8L958.8,444.2z"/>
	<path class="st0" d="M472.2,742.2l-24.9-10.7L472.2,742.2z"/>
	<path class="st0" d="M447.3,731.5l-20.5-10.7L447.3,731.5z"/>
	<path class="st0" d="M426.9,720.9l-16-11.6L426.9,720.9z"/>
	<path class="st0" d="M410.8,709.3l-8.9-8L410.8,709.3z"/>
	<path class="st0" d="M745.3,559l43.6,8L745.3,559z"/>
	<path class="st0" d="M788.9,567l36.5,8.9L788.9,567z"/>
	<path class="st0" d="M825.3,575.9l25.8,8.9L825.3,575.9z"/>
	<path class="st0" d="M179.6,504.7l-8,367.3L179.6,504.7z"/>
	<path class="st0" d="M250.7,667.5l-1.8,97L250.7,667.5z"/>
	<path class="st0" d="M226.7,864.1l-0.9-8.9L226.7,864.1z"/>
	<path class="st0" d="M225.8,855.2l-4.4-8.9L225.8,855.2z"/>
	<path class="st0" d="M221.4,846.3l-6.2-6.2L221.4,846.3z"/>
	<path class="st0" d="M215.2,840l-7.1-2.7L215.2,840z"/>
	<path class="st0" d="M208.1,837.4l-5.3,0.9L208.1,837.4z"/>
	<path class="st0" d="M202.7,838.3l-4.4,4.4L202.7,838.3z"/>
	<path class="st0" d="M198.3,842.7l-2.7,7.1L198.3,842.7z"/>
	<path class="st0" d="M195.6,849.8l0.9,8.9L195.6,849.8z"/>
	<path class="st0" d="M196.5,858.7l3.6,8.9L196.5,858.7z"/>
	<path class="st0" d="M200,867.6l5.3,6.2L200,867.6z"/>
	<path class="st0" d="M205.4,873.8l7.1,3.6L205.4,873.8z"/>
	<path class="st0" d="M212.5,877.4h6.2H212.5z"/>
	<path class="st0" d="M218.7,877.4h0.9H218.7z"/>
	<path class="st0" d="M219.6,877.4l4.4-4.4L219.6,877.4z"/>
	<path class="st0" d="M224.1,873l2.7-7.1L224.1,873z"/>
	<path class="st0" d="M226.7,865.8v-1.8V865.8z"/>
	<path class="st0" d="M186.7,897.9l148.5,54.3L186.7,897.9z"/>
	<path class="st0" d="M378.8,531.4l-148.5-54.3L378.8,531.4z"/>
	<path class="st0" d="M340.6,701.3l-89.8-33.8L340.6,701.3z"/>
	<path class="st0" d="M195.6,491.4l-7.1-0.9L195.6,491.4z"/>
	<path class="st0" d="M188.5,490.5l-1.8,0.9L188.5,490.5z"/>
	<path class="st0" d="M186.7,491.4l-4.4,4.4L186.7,491.4z"/>
	<path class="st0" d="M182.3,495.8l-2.7,7.1L182.3,495.8z"/>
	<path class="st0" d="M179.6,502.9v1.8V502.9z"/>
	<path class="st0" d="M446.4,628.4l-26.7-11.6L446.4,628.4z"/>
	<path class="st0" d="M419.7,616.8l-22.2-11.6L419.7,616.8z"/>
	<path class="st0" d="M397.5,605.2l-18.7-12.5L397.5,605.2z"/>
	<path class="st0" d="M378.8,592.8l-0.9-0.9L378.8,592.8z"/>
	<path class="st0" d="M171.6,872.1l0.9,9.8L171.6,872.1z"/>
	<path class="st0" d="M172.5,881.9l4.4,8L172.5,881.9z"/>
	<path class="st0" d="M176.9,889.9l6.2,6.2L176.9,889.9z"/>
	<path class="st0" d="M183.1,896.1l3.6,1.8L183.1,896.1z"/>
	<path class="st0" d="M352.1,227.2l-6.2,292.6L352.1,227.2z"/>
	<path class="st0" d="M337,951.2l-5.3,243.7L337,951.2z"/>
	<path class="st0" d="M233.8,554.5l-1.8-8.9L233.8,554.5z"/>
	<path class="st0" d="M232.1,545.6l-4.4-8.9L232.1,545.6z"/>
	<path class="st0" d="M227.6,536.7l-6.2-6.2L227.6,536.7z"/>
	<path class="st0" d="M221.4,530.5l-6.2-2.7L221.4,530.5z"/>
	<path class="st0" d="M215.2,527.8l-5.3,0.9L215.2,527.8z"/>
	<path class="st0" d="M209.8,528.7l-5.3,4.4L209.8,528.7z"/>
	<path class="st0" d="M204.5,533.2l-1.8,7.1L204.5,533.2z"/>
	<path class="st0" d="M202.7,540.3v8.9V540.3z"/>
	<path class="st0" d="M202.7,549.2l3.6,8.9L202.7,549.2z"/>
	<path class="st0" d="M206.3,558.1l6.2,7.1L206.3,558.1z"/>
	<path class="st0" d="M212.5,565.2l7.1,2.7L212.5,565.2z"/>
	<path class="st0" d="M219.6,567.9h6.2H219.6z"/>
	<path class="st0" d="M225.8,567.9l5.3-4.4L225.8,567.9z"/>
	<path class="st0" d="M231.2,563.4l1.8-7.1L231.2,563.4z"/>
	<path class="st0" d="M233,556.3l0.9-1.8L233,556.3z"/>
	<path class="st0" d="M344.1,546.5l-148.5-55.1L344.1,546.5z"/>
	<path class="st0" d="M402,701.3l0.9-25.8L402,701.3z"/>
	<path class="st0" d="M715.9,474.5l42.7,7.1L715.9,474.5z"/>
	<path class="st0" d="M758.6,481.6l36.5,8.9L758.6,481.6z"/>
	<path class="st0" d="M795.1,490.5l30.2,8.9L795.1,490.5z"/>
	<path class="st0" d="M825.3,499.4v0.9V499.4z"/>
	<path class="st0" d="M230.3,477.2l-6.2-0.9L230.3,477.2z"/>
	<path class="st0" d="M224.1,476.3l-1.8,0.9L224.1,476.3z"/>
	<path class="st0" d="M453.5,318.8L426,307.3L453.5,318.8z"/>
	<path class="st0" d="M426,307.3l-22.2-11.6L426,307.3z"/>
	<path class="st0" d="M403.7,295.7l-17.8-12.5L403.7,295.7z"/>
	<path class="st0" d="M385.9,283.2l-14.2-12.5L385.9,283.2z"/>
	<path class="st0" d="M371.7,270.8l-9.8-13.3L371.7,270.8z"/>
	<path class="st0" d="M361.9,257.5l-6.2-12.5L361.9,257.5z"/>
	<path class="st0" d="M355.7,245l-3.6-13.3L355.7,245z"/>
	<path class="st0" d="M352.1,231.7v-4.4V231.7z"/>
	<path class="st0" d="M674.1,1062.4l46.3,4.4L674.1,1062.4z"/>
	<path class="st0" d="M720.4,1066.9l40,8L720.4,1066.9z"/>
	<path class="st0" d="M760.4,1074.9l34.7,8.9L760.4,1074.9z"/>
	<path class="st0" d="M795.1,1083.8l17.8,6.2L795.1,1083.8z"/>
	<path class="st0" d="M402,701.3l-153,63.2L402,701.3z"/>
	<path class="st0" d="M747.1,478.9l-1.8,80.1L747.1,478.9z"/>
	<path class="st0" d="M714.2,571.4l42.7,7.1L714.2,571.4z"/>
	<path class="st0" d="M756.8,578.5l36.5,8L756.8,578.5z"/>
	<path class="st0" d="M793.3,586.6l30.2,9.8L793.3,586.6z"/>
	<path class="st0" d="M714.2,571.4l1.8-97L714.2,571.4z"/>
	<path class="st0" d="M714.2,571.4l31.1-12.5L714.2,571.4z"/>
	<path class="st0" d="M222.3,477.2l-35.6,14.2L222.3,477.2z"/>
	<path class="st0" d="M249,764.4l89.8,32.9L249,764.4z"/>
	<path class="st0" d="M464.2,1119.3l140.5-57.8L464.2,1119.3z"/>
	<path class="st0" d="M675,1032.2l140.5-58.7L675,1032.2z"/>
	<path class="st0" d="M586.1,1068.6l-1.8,93.4L586.1,1068.6z"/>
	<path class="st0" d="M675,1032.2l-8.9,386.9L675,1032.2z"/>
	<path class="st0" d="M816.4,935.2l-352.2,145.9L816.4,935.2z"/>
	<path class="st0" d="M464.2,1081.1v38.2V1081.1z"/>
	<path class="st0" d="M604.8,1061.5l-8.9,386.9L604.8,1061.5z"/>
	<path class="st0" d="M816.4,935.2l-0.9,38.2L816.4,935.2z"/>
	<path class="st0" d="M467.8,927.2l28.5-7.1L467.8,927.2z"/>
	<path class="st0" d="M496.2,920.1L530,913L496.2,920.1z"/>
	<path class="st0" d="M530,913l38.2-4.4L530,913z"/>
	<path class="st0" d="M568.3,908.5l43.6-2.7L568.3,908.5z"/>
	<path class="st0" d="M611.9,905.9h48H611.9z"/>
	<path class="st0" d="M659.9,905.9l48,4.4L659.9,905.9z"/>
	<path class="st0" d="M707.9,910.3l42.7,7.1L707.9,910.3z"/>
	<path class="st0" d="M750.6,917.4l36.5,8L750.6,917.4z"/>
	<path class="st0" d="M787.1,925.4l29.4,9.8L787.1,925.4z"/>
	<path class="st0" d="M353,189l-0.9,38.2L353,189z"/>
	<path class="st0" d="M832.5,161.4l28.5-11.6L832.5,161.4z"/>
	<path class="st0" d="M454.4,279.7l-0.9,39.1L454.4,279.7z"/>
	<path class="st0" d="M453.5,318.8L426,307.3L453.5,318.8z"/>
	<path class="st0" d="M426,307.3l-22.2-11.6L426,307.3z"/>
	<path class="st0" d="M403.7,295.7l-17.8-12.5L403.7,295.7z"/>
	<path class="st0" d="M385.9,283.2l-14.2-12.5L385.9,283.2z"/>
	<path class="st0" d="M371.7,270.8l-9.8-13.3L371.7,270.8z"/>
	<path class="st0" d="M361.9,257.5l-6.2-12.5L361.9,257.5z"/>
	<path class="st0" d="M355.7,245l-3.6-13.3L355.7,245z"/>
	<path class="st0" d="M352.1,231.7v-4.4V231.7z"/>
	<path class="st0" d="M481.1,307.3l-0.9,38.2L481.1,307.3z"/>
	<path class="st0" d="M480.2,345.5l351.3-145.9L480.2,345.5z"/>
	<path class="st0" d="M861.8,110.7l-407.4,169L861.8,110.7z"/>
	<path class="st0" d="M832.5,161.4l-0.9,38.2L832.5,161.4z"/>
	<path class="st0" d="M861.8,110.7l-0.9,39.1L861.8,110.7z"/>
	<path class="st0" d="M454.4,279.7L426.9,269L454.4,279.7z"/>
	<path class="st0" d="M426.9,269l-22.2-12.5L426.9,269z"/>
	<path class="st0" d="M404.6,256.6l-17.8-12.5L404.6,256.6z"/>
	<path class="st0" d="M386.8,244.1l-14.2-12.5L386.8,244.1z"/>
	<path class="st0" d="M372.6,231.7l-9.8-12.5L372.6,231.7z"/>
	<path class="st0" d="M362.8,219.2l-6.2-13.3L362.8,219.2z"/>
	<path class="st0" d="M356.6,205.9l-3.6-12.5L356.6,205.9z"/>
	<path class="st0" d="M353,193.4V189V193.4z"/>
	<path class="st0" d="M353,189l2.7-12.5L353,189z"/>
	<path class="st0" d="M355.7,176.5l5.3-13.3L355.7,176.5z"/>
	<path class="st0" d="M361,163.2l8.9-11.6L361,163.2z"/>
	<path class="st0" d="M369.9,151.6l13.3-12.5L369.9,151.6z"/>
	<path class="st0" d="M383.3,139.2l16-11.6L383.3,139.2z"/>
	<path class="st0" d="M399.3,127.6l20.5-10.7L399.3,127.6z"/>
	<path class="st0" d="M419.7,116.9l24-9.8L419.7,116.9z"/>
	<path class="st0" d="M443.8,107.1l28.5-8.9L443.8,107.1z"/>
	<path class="st0" d="M472.2,98.2l32.9-8L472.2,98.2z"/>
	<path class="st0" d="M505.1,90.2l38.2-7.1L505.1,90.2z"/>
	<path class="st0" d="M543.4,83.1l42.7-4.4L543.4,83.1z"/>
	<path class="st0" d="M586.1,78.7l48.9-1.8L586.1,78.7z"/>
	<path class="st0" d="M635,76.9l51.6,0.9L635,76.9z"/>
	<path class="st0" d="M686.6,77.8l51.6,4.4L686.6,77.8z"/>
	<path class="st0" d="M738.2,82.2l45.4,7.1L738.2,82.2z"/>
	<path class="st0" d="M783.5,89.3l40,9.8L783.5,89.3z"/>
	<path class="st0" d="M823.6,99.1l32.9,9.8L823.6,99.1z"/>
	<path class="st0" d="M856.5,108.9l5.3,1.8L856.5,108.9z"/>
	<path class="st0" d="M453.5,318.8l27.6-11.6L453.5,318.8z"/>
</g>
</svg>
