<?xml version="1.0" encoding="utf-8"?>
<!-- Generator: Adobe Illustrator 23.1.0, SVG Export Plug-In . SVG Version: 6.00 Build 0)  -->
<svg version="1.1" id="Слой_1" xmlns="http://www.w3.org/2000/svg" xmlns:xlink="http://www.w3.org/1999/xlink" x="0px" y="0px"
	 viewBox="0 0 1133.9 1133.9" style="enable-background:new 0 0 1133.9 1133.9;" xml:space="preserve">
<style type="text/css">
	.st0{fill:none;stroke:#000000;stroke-width:1.68;stroke-linecap:round;stroke-linejoin:round;stroke-miterlimit:10;}
	.st1{fill:none;stroke:#000000;stroke-width:0.48;stroke-linecap:round;stroke-linejoin:round;stroke-miterlimit:10;}
	.st2{fill:none;}
	.st3{fill:none;stroke:#000000;stroke-width:7;stroke-linecap:round;stroke-linejoin:round;stroke-miterlimit:10;}
</style>
<path class="st3" d="M885.2,338.2l-3,27.2L885.2,338.2z"/>
<path class="st3" d="M882.2,365.4l-8.1,26.2L882.2,365.4z"/>
<path class="st3" d="M874.2,391.6l-11.1,25.2L874.2,391.6z"/>
<path class="st3" d="M863.1,416.8L846,440.9L863.1,416.8z"/>
<path class="st3" d="M846,440.9l-20.1,22.2L846,440.9z"/>
<path class="st3" d="M825.8,463.1l-25.2,20.1L825.8,463.1z"/>
<path class="st3" d="M800.6,483.3l-27.2,18.1L800.6,483.3z"/>
<path class="st3" d="M773.4,501.4l-31.2,16.1L773.4,501.4z"/>
<path class="st3" d="M742.2,517.5L708,530.6L742.2,517.5z"/>
<path class="st3" d="M708,530.6l-35.3,10.1L708,530.6z"/>
<path class="st3" d="M672.7,540.7l-37.3,7.1L672.7,540.7z"/>
<path class="st3" d="M635.4,547.7l-38.3,4L635.4,547.7z"/>
<path class="st3" d="M597.2,551.7h-39.3H597.2z"/>
<path class="st3" d="M557.9,551.7l-38.3-3L557.9,551.7z"/>
<path class="st3" d="M519.6,548.7l-38.3-6L519.6,548.7z"/>
<path class="st3" d="M481.3,542.7l-36.3-9.1L481.3,542.7z"/>
<path class="st3" d="M445.1,533.6l-34.2-12.1L445.1,533.6z"/>
<path class="st3" d="M410.8,521.5l-32.2-15.1L410.8,521.5z"/>
<path class="st3" d="M378.6,506.4l-29.2-18.1L378.6,506.4z"/>
<path class="st3" d="M349.4,488.3l-26.2-19.1L349.4,488.3z"/>
<path class="st3" d="M323.2,469.2L301,447L323.2,469.2z"/>
<path class="st3" d="M301,447l-18.1-24.2L301,447z"/>
<path class="st3" d="M282.9,422.8l-14.1-25.2L282.9,422.8z"/>
<path class="st3" d="M268.8,397.6l-9.1-25.2L268.8,397.6z"/>
<path class="st3" d="M259.7,372.5l-5-27.2L259.7,372.5z"/>
<path class="st3" d="M254.7,345.3v-14.1V345.3z"/>
<path class="st3" d="M627.4,265.7l11.1,10.1L627.4,265.7z"/>
<path class="st3" d="M638.5,275.8l7.1,13.1L638.5,275.8z"/>
<path class="st3" d="M645.5,288.9l2,12.1L645.5,288.9z"/>
<path class="st3" d="M647.5,300.9l-3,13.1L647.5,300.9z"/>
<path class="st3" d="M644.5,314l-7.1,12.1L644.5,314z"/>
<path class="st3" d="M637.5,326.1l-11.1,11.1L637.5,326.1z"/>
<path class="st3" d="M626.4,337.2l-15.1,8.1L626.4,337.2z"/>
<path class="st3" d="M611.3,345.3l-17.1,6L611.3,345.3z"/>
<path class="st3" d="M594.1,351.3l-18.1,2L594.1,351.3z"/>
<path class="st3" d="M576,353.3l-19.1-1L576,353.3z"/>
<path class="st3" d="M556.9,352.3l-19.1-4L556.9,352.3z"/>
<path class="st3" d="M537.7,348.3l-16.1-7.1L537.7,348.3z"/>
<path class="st3" d="M521.6,341.2l-13.1-9.1L521.6,341.2z"/>
<path class="st3" d="M508.5,332.2l-10.1-12.1L508.5,332.2z"/>
<path class="st3" d="M498.5,320.1l-5-12.1L498.5,320.1z"/>
<path class="st3" d="M493.4,308l-1-9.1L493.4,308z"/>
<path class="st3" d="M492.4,298.9l3-13.1L492.4,298.9z"/>
<path class="st3" d="M495.4,285.8l7.1-12.1L495.4,285.8z"/>
<path class="st3" d="M502.5,273.7l11.1-10.1L502.5,273.7z"/>
<path class="st3" d="M513.6,263.7l15.1-9.1L513.6,263.7z"/>
<path class="st3" d="M528.7,254.6l17.1-5L528.7,254.6z"/>
<path class="st3" d="M545.8,249.6l18.1-3L545.8,249.6z"/>
<path class="st3" d="M563.9,246.5l19.1,1L563.9,246.5z"/>
<path class="st3" d="M583.1,247.6l19.1,4L583.1,247.6z"/>
<path class="st3" d="M602.2,251.6l16.1,7.1L602.2,251.6z"/>
<path class="st3" d="M618.3,258.6l9.1,7.1L618.3,258.6z"/>
<path class="st3" d="M254.7,296.9v34.2V296.9z"/>
<path class="st3" d="M805.7,157.9l24.2,21.2L805.7,157.9z"/>
<path class="st3" d="M829.8,179.1l20.1,23.2L829.8,179.1z"/>
<path class="st3" d="M850,202.2l15.1,24.2L850,202.2z"/>
<path class="st3" d="M865.1,226.4l12.1,26.2L865.1,226.4z"/>
<path class="st3" d="M877.2,252.6l6,26.2L877.2,252.6z"/>
<path class="st3" d="M883.2,278.8l2,25.2L883.2,278.8z"/>
<path class="st3" d="M885.2,304l-3,26.2L885.2,304z"/>
<path class="st3" d="M882.2,330.1l-7.1,26.2L882.2,330.1z"/>
<path class="st3" d="M875.2,356.3l-12.1,25.2L875.2,356.3z"/>
<path class="st3" d="M863.1,381.5L847,405.7L863.1,381.5z"/>
<path class="st3" d="M847,405.7l-21.2,23.2L847,405.7z"/>
<path class="st3" d="M825.8,428.9L801.6,449L825.8,428.9z"/>
<path class="st3" d="M801.6,449l-28.2,18.1L801.6,449z"/>
<path class="st3" d="M773.4,467.1l-31.2,16.1L773.4,467.1z"/>
<path class="st3" d="M742.2,483.3L709,496.3L742.2,483.3z"/>
<path class="st3" d="M709,496.3l-36.3,10.1L709,496.3z"/>
<path class="st3" d="M672.7,506.4l-37.3,7.1L672.7,506.4z"/>
<path class="st3" d="M635.4,513.5l-38.3,3L635.4,513.5z"/>
<path class="st3" d="M597.2,516.5l-38.3,1L597.2,516.5z"/>
<path class="st3" d="M558.9,517.5l-39.3-3L558.9,517.5z"/>
<path class="st3" d="M519.6,514.5l-37.3-6L519.6,514.5z"/>
<path class="st3" d="M482.3,508.4l-36.3-9.1L482.3,508.4z"/>
<path class="st3" d="M446.1,499.4l-35.3-12.1L446.1,499.4z"/>
<path class="st3" d="M410.8,487.3l-32.2-15.1L410.8,487.3z"/>
<path class="st3" d="M378.6,472.2L349.4,454L378.6,472.2z"/>
<path class="st3" d="M349.4,454l-26.2-20.1L349.4,454z"/>
<path class="st3" d="M323.2,433.9L301,411.7L323.2,433.9z"/>
<path class="st3" d="M301,411.7l-18.1-23.2L301,411.7z"/>
<path class="st3" d="M282.9,388.6l-14.1-25.2L282.9,388.6z"/>
<path class="st3" d="M268.8,363.4l-9.1-26.2L268.8,363.4z"/>
<path class="st3" d="M259.7,337.2l-4-26.2L259.7,337.2z"/>
<path class="st3" d="M255.7,311l-1-14.1L255.7,311z"/>
<path class="st3" d="M254.7,296.9l3-27.2L254.7,296.9z"/>
<path class="st3" d="M257.7,269.7l7.1-26.2L257.7,269.7z"/>
<path class="st3" d="M264.8,243.5l12.1-25.2L264.8,243.5z"/>
<path class="st3" d="M276.9,218.3l16.1-24.2L276.9,218.3z"/>
<path class="st3" d="M293,194.2l21.2-22.2L293,194.2z"/>
<path class="st3" d="M314.1,172l24.2-21.2L314.1,172z"/>
<path class="st3" d="M338.3,150.9l28.2-18.1L338.3,150.9z"/>
<path class="st3" d="M366.5,132.7l31.2-15.1L366.5,132.7z"/>
<path class="st3" d="M397.7,117.6l33.2-13.1L397.7,117.6z"/>
<path class="st3" d="M431,104.5l36.3-10.1L431,104.5z"/>
<path class="st3" d="M467.2,94.4l37.3-7.1L467.2,94.4z"/>
<path class="st3" d="M504.5,87.4l38.3-4L504.5,87.4z"/>
<path class="st3" d="M542.8,83.4h38.3H542.8z"/>
<path class="st3" d="M581.1,83.4l39.3,2L581.1,83.4z"/>
<path class="st3" d="M620.3,85.4l37.3,7.1L620.3,85.4z"/>
<path class="st3" d="M657.6,92.4l36.3,9.1L657.6,92.4z"/>
<path class="st3" d="M693.9,101.5l35.3,12.1L693.9,101.5z"/>
<path class="st3" d="M729.1,113.6l32.2,15.1L729.1,113.6z"/>
<path class="st3" d="M761.4,128.7l29.2,17.1L761.4,128.7z"/>
<path class="st3" d="M790.6,145.8l15.1,12.1L790.6,145.8z"/>
<path class="st3" d="M627.4,334.2l1,1L627.4,334.2z"/>
<path class="st3" d="M510.5,334.2l14.1-9.1L510.5,334.2z"/>
<path class="st3" d="M524.6,325.1l17.1-6L524.6,325.1z"/>
<path class="st3" d="M541.8,319.1l18.1-3L541.8,319.1z"/>
<path class="st3" d="M559.9,316H579H559.9z"/>
<path class="st3" d="M579,316l19.1,4L579,316z"/>
<path class="st3" d="M598.2,320.1l16.1,6L598.2,320.1z"/>
<path class="st3" d="M614.3,326.1l13.1,8.1L614.3,326.1z"/>
<path class="st3" d="M885.2,304v34.2V304z"/>
<path class="st3" d="M254.7,331.2l-3,183.3L254.7,331.2z"/>
<path class="st3" d="M885.2,338.2l-3,27.2L885.2,338.2z"/>
<path class="st3" d="M882.2,365.4l-8.1,26.2L882.2,365.4z"/>
<path class="st3" d="M874.2,391.6l-11.1,25.2L874.2,391.6z"/>
<path class="st3" d="M863.1,416.8L846,440.9L863.1,416.8z"/>
<path class="st3" d="M846,440.9l-20.1,22.2L846,440.9z"/>
<path class="st3" d="M825.8,463.1l-25.2,20.1L825.8,463.1z"/>
<path class="st3" d="M800.6,483.3l-27.2,18.1L800.6,483.3z"/>
<path class="st3" d="M773.4,501.4l-31.2,16.1L773.4,501.4z"/>
<path class="st3" d="M742.2,517.5L708,530.6L742.2,517.5z"/>
<path class="st3" d="M708,530.6l-35.3,10.1L708,530.6z"/>
<path class="st3" d="M672.7,540.7l-37.3,7.1L672.7,540.7z"/>
<path class="st3" d="M635.4,547.7l-38.3,4L635.4,547.7z"/>
<path class="st3" d="M597.2,551.7h-39.3H597.2z"/>
<path class="st3" d="M557.9,551.7l-38.3-3L557.9,551.7z"/>
<path class="st3" d="M519.6,548.7l-38.3-6L519.6,548.7z"/>
<path class="st3" d="M481.3,542.7l-36.3-9.1L481.3,542.7z"/>
<path class="st3" d="M445.1,533.6l-34.2-12.1L445.1,533.6z"/>
<path class="st3" d="M410.8,521.5l-32.2-15.1L410.8,521.5z"/>
<path class="st3" d="M378.6,506.4l-29.2-18.1L378.6,506.4z"/>
<path class="st3" d="M349.4,488.3l-26.2-19.1L349.4,488.3z"/>
<path class="st3" d="M323.2,469.2L301,447L323.2,469.2z"/>
<path class="st3" d="M301,447l-18.1-24.2L301,447z"/>
<path class="st3" d="M282.9,422.8l-14.1-25.2L282.9,422.8z"/>
<path class="st3" d="M268.8,397.6l-9.1-25.2L268.8,397.6z"/>
<path class="st3" d="M259.7,372.5l-5-27.2L259.7,372.5z"/>
<path class="st3" d="M254.7,345.3v-14.1V345.3z"/>
<path class="st3" d="M878.2,868l-2,27.2L878.2,868z"/>
<path class="st3" d="M876.2,895.2l-8.1,26.2L876.2,895.2z"/>
<path class="st3" d="M868.1,921.4L856,946.6L868.1,921.4z"/>
<path class="st3" d="M856,946.6l-16.1,24.2L856,946.6z"/>
<path class="st3" d="M839.9,970.8l-20.1,22.2L839.9,970.8z"/>
<path class="st3" d="M819.8,992.9l-25.2,20.1L819.8,992.9z"/>
<path class="st3" d="M794.6,1013.1l-28.2,19.1L794.6,1013.1z"/>
<path class="st3" d="M766.4,1032.2l-30.2,15.1L766.4,1032.2z"/>
<path class="st3" d="M736.2,1047.3l-34.2,13.1L736.2,1047.3z"/>
<path class="st3" d="M701.9,1060.4l-35.3,10.1L701.9,1060.4z"/>
<path class="st3" d="M666.7,1070.5l-37.3,7.1L666.7,1070.5z"/>
<path class="st3" d="M629.4,1077.5l-38.3,4L629.4,1077.5z"/>
<path class="st3" d="M591.1,1081.6h-39.3H591.1z"/>
<path class="st3" d="M551.8,1081.6l-38.3-3L551.8,1081.6z"/>
<path class="st3" d="M513.6,1078.6l-38.3-6L513.6,1078.6z"/>
<path class="st3" d="M475.3,1072.5l-36.3-9.1L475.3,1072.5z"/>
<path class="st3" d="M439,1063.4l-34.2-12.1L439,1063.4z"/>
<path class="st3" d="M404.8,1051.4l-3-1L404.8,1051.4z"/>
<path class="st3" d="M885.2,338.2L878.2,868L885.2,338.2z"/>
<path class="st3" d="M1055.5,649.5l-1,7.1L1055.5,649.5z"/>
<path class="st3" d="M1054.5,656.5l-2,1L1054.5,656.5z"/>
<path class="st3" d="M1052.5,657.5l-5,1L1052.5,657.5z"/>
<path class="st3" d="M1047.4,658.5l-6-3L1047.4,658.5z"/>
<path class="st3" d="M1041.4,655.5l-1-1L1041.4,655.5z"/>
<path class="st3" d="M728.1,113.6l1-51.4L728.1,113.6z"/>
<path class="st3" d="M1044.4,292.9l7.1,8.1L1044.4,292.9z"/>
<path class="st3" d="M1051.4,300.9l6,11.1L1051.4,300.9z"/>
<path class="st3" d="M1057.5,312l2,10.1L1057.5,312z"/>
<path class="st3" d="M1088.7,265.7l7.1,8.1L1088.7,265.7z"/>
<path class="st3" d="M1095.8,273.7l7.1,12.1L1095.8,273.7z"/>
<path class="st3" d="M1102.8,285.8l1,10.1L1102.8,285.8z"/>
<path class="st3" d="M1052.5,657.5l44.3-26.2L1052.5,657.5z"/>
<path class="st3" d="M732.1,54.2L776.5,27L732.1,54.2z"/>
<path class="st3" d="M1103.8,295.9l-3,327.4L1103.8,295.9z"/>
<path class="st3" d="M1100.8,623.3l-2,6L1100.8,623.3z"/>
<path class="st3" d="M1098.8,629.3l-2,2L1098.8,629.3z"/>
<path class="st3" d="M1059.5,322.1l-4,327.4L1059.5,322.1z"/>
<path class="st3" d="M789.6,30l299.2,235.7L789.6,30z"/>
<path class="st3" d="M776.5,27h5H776.5z"/>
<path class="st3" d="M781.5,27l7.1,3L781.5,27z"/>
<path class="st3" d="M788.6,30h1H788.6z"/>
<path class="st3" d="M729.1,62.2l1-6L729.1,62.2z"/>
<path class="st3" d="M730.1,56.2l2-2L730.1,56.2z"/>
<path class="st3" d="M732.1,54.2l5-1L732.1,54.2z"/>
<path class="st3" d="M737.2,53.1l7.1,3L737.2,53.1z"/>
<path class="st3" d="M744.2,56.2l1,1L744.2,56.2z"/>
<path class="st3" d="M1040.4,654.5l-115.8-90.7L1040.4,654.5z"/>
<path class="st3" d="M745.2,57.2l299.2,235.7L745.2,57.2z"/>
<path class="st3" d="M401.8,1050.4l-44.3,27.2L401.8,1050.4z"/>
<path class="st3" d="M404.8,1042.3l4-327.4L404.8,1042.3z"/>
<path class="st3" d="M401.8,1050.4l3-4L401.8,1050.4z"/>
<path class="st3" d="M404.8,1046.3v-4V1046.3z"/>
<path class="st3" d="M360.5,1069.5l4-327.4L360.5,1069.5z"/>
<path class="st3" d="M93.5,450l-7.1-4L93.5,450z"/>
<path class="st3" d="M86.5,446l-5,1L86.5,446z"/>
<path class="st3" d="M33.1,481.2l-3,327.4L33.1,481.2z"/>
<path class="st3" d="M348.4,711.9L49.2,476.2L348.4,711.9z"/>
<path class="st3" d="M364.5,742.1l-2-9.1L364.5,742.1z"/>
<path class="st3" d="M362.5,733.1l-5-11.1L362.5,733.1z"/>
<path class="st3" d="M357.4,722l-8.1-10.1L357.4,722z"/>
<path class="st3" d="M349.4,711.9h-1H349.4z"/>
<path class="st3" d="M45.2,838.8l299.2,234.7L45.2,838.8z"/>
<path class="st3" d="M81.4,447l-44.3,26.2L81.4,447z"/>
<path class="st3" d="M344.3,1073.5l8.1,4L344.3,1073.5z"/>
<path class="st3" d="M352.4,1077.5h5H352.4z"/>
<path class="st3" d="M357.4,1077.5l3-4L357.4,1077.5z"/>
<path class="st3" d="M360.5,1073.5v-4V1073.5z"/>
<path class="st3" d="M393.7,684.7L93.5,450L393.7,684.7z"/>
<path class="st3" d="M30.1,808.6l1,9.1L30.1,808.6z"/>
<path class="st3" d="M31.1,817.7l5,11.1L31.1,817.7z"/>
<path class="st3" d="M36.1,828.7l9.1,10.1L36.1,828.7z"/>
<path class="st3" d="M408.8,714.9l-1-9.1L408.8,714.9z"/>
<path class="st3" d="M407.8,705.9l-6-11.1L407.8,705.9z"/>
<path class="st3" d="M401.8,694.8l-8.1-9.1L401.8,694.8z"/>
<path class="st3" d="M393.7,685.7v-1V685.7z"/>
<path class="st3" d="M49.2,476.2l-7.1-3L49.2,476.2z"/>
<path class="st3" d="M42.2,473.2h-5H42.2z"/>
<path class="st3" d="M37.1,473.2l-3,4L37.1,473.2z"/>
<path class="st3" d="M34.1,477.2l-1,4L34.1,477.2z"/>
<path class="st3" d="M484.4,692.8l-37.3-9.1L484.4,692.8z"/>
<path class="st3" d="M447.1,683.7l-34.2-12.1L447.1,683.7z"/>
<path class="st3" d="M412.8,671.6l-32.2-15.1L412.8,671.6z"/>
<path class="st3" d="M380.6,656.5l-30.2-17.1L380.6,656.5z"/>
<path class="st3" d="M350.4,639.4l-26.2-20.1L350.4,639.4z"/>
<path class="st3" d="M324.2,619.2L301,598.1L324.2,619.2z"/>
<path class="st3" d="M301,598.1l-18.1-23.2L301,598.1z"/>
<path class="st3" d="M282.9,574.9l-14.1-25.2L282.9,574.9z"/>
<path class="st3" d="M268.8,549.7l-10.1-26.2L268.8,549.7z"/>
<path class="st3" d="M258.7,523.5l-3-11.1L258.7,523.5z"/>
<path class="st3" d="M484.4,692.8l-2,137L484.4,692.8z"/>
<path class="st3" d="M255.7,512.5l-46.3,28.2L255.7,512.5z"/>
<path class="st3" d="M484.4,692.8l-75.5,45.3L484.4,692.8z"/>
<path class="st3" d="M482.3,829.8l-75.5,46.3L482.3,829.8z"/>
<path class="st3" d="M1007.1,376.5l-1,138L1007.1,376.5z"/>
<path class="st3" d="M882.2,590l123.9-75.5L882.2,590z"/>
<path class="st3" d="M883.2,279.8l123.9,96.7L883.2,279.8z"/>
<path class="st3" d="M883.2,452l123.9-75.5L883.2,452z"/>
<path class="st3" d="M287.9,803.6l-181.3-143L287.9,803.6z"/>
<path class="st3" d="M106.6,660.5l-1,86.6L106.6,660.5z"/>
<path class="st3" d="M105.6,747.2l181.3,142L105.6,747.2z"/>
<path class="st3" d="M286.9,889.2l1-85.6L286.9,889.2z"/>
<path class="st3" d="M168.1,709.9l-62.5,37.3L168.1,709.9z"/>
<path class="st3" d="M1004.1,305l2-6L1004.1,305z"/>
<path class="st3" d="M1006.1,298.9l2-2L1006.1,298.9z"/>
<path class="st3" d="M1008.1,296.9l5-1L1008.1,296.9z"/>
<path class="st3" d="M1013.2,295.9l6,3L1013.2,295.9z"/>
<path class="st3" d="M1019.2,298.9l7.1,7.1L1019.2,298.9z"/>
<path class="st3" d="M1026.3,306l7.1,12.1L1026.3,306z"/>
<path class="st3" d="M1033.3,318.1l2,11.1L1033.3,318.1z"/>
<path class="st3" d="M1035.3,329.1l-1,6L1035.3,329.1z"/>
<path class="st3" d="M1034.3,335.2l-2,2L1034.3,335.2z"/>
<path class="st3" d="M1032.3,337.2l-5,1L1032.3,337.2z"/>
<path class="st3" d="M1027.3,338.2l-6-3L1027.3,338.2z"/>
<path class="st3" d="M1021.2,335.2l-7.1-7.1L1021.2,335.2z"/>
<path class="st3" d="M1014.2,328.1l-7.1-11.1L1014.2,328.1z"/>
<path class="st3" d="M1007.1,317.1l-3-11.1L1007.1,317.1z"/>
<path class="st3" d="M1004.1,306v-1V306z"/>
<path class="st3" d="M1001.1,581l2-7.1L1001.1,581z"/>
<path class="st3" d="M1003.1,573.9l1-1L1003.1,573.9z"/>
<path class="st3" d="M1004.1,572.9l5-1L1004.1,572.9z"/>
<path class="st3" d="M1009.1,571.9l7.1,3L1009.1,571.9z"/>
<path class="st3" d="M1016.2,574.9l7.1,7.1L1016.2,574.9z"/>
<path class="st3" d="M1023.2,582l7.1,11.1L1023.2,582z"/>
<path class="st3" d="M1030.3,593l2,11.1L1030.3,593z"/>
<path class="st3" d="M1032.3,604.1l-1,7.1L1032.3,604.1z"/>
<path class="st3" d="M1031.3,611.2l-2,2L1031.3,611.2z"/>
<path class="st3" d="M1029.3,613.2l-5,1L1029.3,613.2z"/>
<path class="st3" d="M1024.3,614.2l-6-3L1024.3,614.2z"/>
<path class="st3" d="M1018.2,611.2l-8.1-7.1L1018.2,611.2z"/>
<path class="st3" d="M1010.2,604.1l-6-11.1L1010.2,604.1z"/>
<path class="st3" d="M1004.1,593l-3-11.1L1004.1,593z"/>
<path class="st3" d="M1001.1,582v-1V582z"/>
<path class="st3" d="M752.3,106.5l2-6L752.3,106.5z"/>
<path class="st3" d="M754.3,100.5l1-2L754.3,100.5z"/>
<path class="st3" d="M755.3,98.5h5H755.3z"/>
<path class="st3" d="M760.3,98.5l7.1,2L760.3,98.5z"/>
<path class="st3" d="M767.4,100.5l7.1,7.1L767.4,100.5z"/>
<path class="st3" d="M774.4,107.5l7.1,12.1L774.4,107.5z"/>
<path class="st3" d="M781.5,119.6l2,11.1L781.5,119.6z"/>
<path class="st3" d="M783.5,130.7l-1,6L783.5,130.7z"/>
<path class="st3" d="M782.5,136.8l-2,3L782.5,136.8z"/>
<path class="st3" d="M760.3,127.7l-6-12.1L760.3,127.7z"/>
<path class="st3" d="M754.3,115.6l-2-9.1L754.3,115.6z"/>
<path class="st3" d="M53.2,801.6l2-6L53.2,801.6z"/>
<path class="st3" d="M55.3,795.5l2-2L55.3,795.5z"/>
<path class="st3" d="M57.3,793.5h5H57.3z"/>
<path class="st3" d="M62.3,793.5l6,3L62.3,793.5z"/>
<path class="st3" d="M68.3,796.5l7.1,7.1L68.3,796.5z"/>
<path class="st3" d="M75.4,803.6l7.1,11.1L75.4,803.6z"/>
<path class="st3" d="M82.5,814.6l3,11.1L82.5,814.6z"/>
<path class="st3" d="M85.5,825.7l-2,7.1L85.5,825.7z"/>
<path class="st3" d="M83.5,832.8l-2,2L83.5,832.8z"/>
<path class="st3" d="M81.4,834.8h-5H81.4z"/>
<path class="st3" d="M76.4,834.8l-6-3L76.4,834.8z"/>
<path class="st3" d="M70.4,831.8l-7.1-7.1L70.4,831.8z"/>
<path class="st3" d="M63.3,824.7l-7.1-11.1L63.3,824.7z"/>
<path class="st3" d="M56.3,813.6l-3-11.1L56.3,813.6z"/>
<path class="st3" d="M53.2,802.6v-1V802.6z"/>
<path class="st3" d="M306.1,1000l1-6L306.1,1000z"/>
<path class="st3" d="M307.1,993.9l2-2L307.1,993.9z"/>
<path class="st3" d="M309.1,991.9l5-1L309.1,991.9z"/>
<path class="st3" d="M314.1,990.9l6,3L314.1,990.9z"/>
<path class="st3" d="M320.2,993.9l8.1,7.1L320.2,993.9z"/>
<path class="st3" d="M328.2,1001l6,12.1L328.2,1001z"/>
<path class="st3" d="M334.3,1013.1l3,11.1L334.3,1013.1z"/>
<path class="st3" d="M337.3,1024.2l-1,6L337.3,1024.2z"/>
<path class="st3" d="M336.3,1030.2l-3,2L336.3,1030.2z"/>
<path class="st3" d="M333.3,1032.2l-4,1L333.3,1032.2z"/>
<path class="st3" d="M329.2,1033.2l-7.1-3L329.2,1033.2z"/>
<path class="st3" d="M322.2,1030.2l-7.1-7.1L322.2,1030.2z"/>
<path class="st3" d="M315.1,1023.2l-7.1-11.1L315.1,1023.2z"/>
<path class="st3" d="M308.1,1012.1l-2-11.1L308.1,1012.1z"/>
<path class="st3" d="M306.1,1001v-1V1001z"/>
<path class="st3" d="M309.1,724l1-6L309.1,724z"/>
<path class="st3" d="M310.1,717.9l2-2L310.1,717.9z"/>
<path class="st3" d="M312.1,715.9h5H312.1z"/>
<path class="st3" d="M317.1,715.9l7.1,3L317.1,715.9z"/>
<path class="st3" d="M324.2,719l7.1,7.1L324.2,719z"/>
<path class="st3" d="M331.2,726l6,11.1L331.2,726z"/>
<path class="st3" d="M337.3,737.1l3,11.1L337.3,737.1z"/>
<path class="st3" d="M340.3,748.2l-1,6L340.3,748.2z"/>
<path class="st3" d="M339.3,754.2l-2,3L339.3,754.2z"/>
<path class="st3" d="M337.3,757.2h-5H337.3z"/>
<path class="st3" d="M332.3,757.2l-7.1-3L332.3,757.2z"/>
<path class="st3" d="M325.2,754.2l-7.1-7.1L325.2,754.2z"/>
<path class="st3" d="M318.2,747.2l-7.1-11.1L318.2,747.2z"/>
<path class="st3" d="M311.1,736.1l-2-11.1L311.1,736.1z"/>
<path class="st3" d="M309.1,725v-1V725z"/>
<path class="st3" d="M57.3,525.6l1-6L57.3,525.6z"/>
<path class="st3" d="M58.3,519.5l2-2L58.3,519.5z"/>
<path class="st3" d="M60.3,517.5h5H60.3z"/>
<path class="st3" d="M65.3,517.5l6,3L65.3,517.5z"/>
<path class="st3" d="M71.4,520.5l7.1,7.1L71.4,520.5z"/>
<path class="st3" d="M78.4,527.6l7.1,11.1L78.4,527.6z"/>
<path class="st3" d="M85.5,538.7l3,11.1L85.5,538.7z"/>
<path class="st3" d="M88.5,549.7l-1,7.1L88.5,549.7z"/>
<path class="st3" d="M87.5,556.8l-3,2L87.5,556.8z"/>
<path class="st3" d="M84.5,558.8l-5,1L84.5,558.8z"/>
<path class="st3" d="M79.4,559.8l-6-3L79.4,559.8z"/>
<path class="st3" d="M73.4,556.8l-7.1-7.1L73.4,556.8z"/>
<path class="st3" d="M66.3,549.7l-7.1-12.1L66.3,549.7z"/>
<path class="st3" d="M59.3,537.6l-2-11.1L59.3,537.6z"/>
<path class="st3" d="M57.3,526.6v-1V526.6z"/>
</svg>
