<?xml version="1.0" encoding="utf-8"?>
<!-- Generator: Adobe Illustrator 23.1.0, SVG Export Plug-In . SVG Version: 6.00 Build 0)  -->
<svg version="1.1" id="Слой_1" xmlns="http://www.w3.org/2000/svg" xmlns:xlink="http://www.w3.org/1999/xlink" x="0px" y="0px"
	 viewBox="0 0 1133.9 1133.9" style="enable-background:new 0 0 1133.9 1133.9;" xml:space="preserve">
<style type="text/css">
	.st0{fill:none;stroke:#000000;stroke-width:7;stroke-linecap:round;stroke-linejoin:round;stroke-miterlimit:10;}
</style>
<path class="st0" d="M363.9,674L139.6,542L363.9,674z"/>
<path class="st0" d="M396.3,953.1l-34.9,22.4L396.3,953.1z"/>
<path class="st0" d="M351.4,731.3L329,696.4L351.4,731.3z"/>
<path class="st0" d="M361.4,975.5l-10-244.2L361.4,975.5z"/>
<path class="st0" d="M329,696.4l-224.2-132L329,696.4z"/>
<path class="st0" d="M119.7,551.9l-34.9,22.4L119.7,551.9z"/>
<path class="st0" d="M139.6,542l-19.9,10L139.6,542z"/>
<path class="st0" d="M139.6,542l-34.9,22.4L139.6,542z"/>
<path class="st0" d="M341.5,987.9l19.9-12.5L341.5,987.9z"/>
<path class="st0" d="M363.9,674L329,696.4L363.9,674z"/>
<path class="st0" d="M184.5,893.3l157,94.7L184.5,893.3z"/>
<path class="st0" d="M386.3,708.9l-34.9,22.4L386.3,708.9z"/>
<path class="st0" d="M84.8,574.4l10,194.3L84.8,574.4z"/>
<path class="st0" d="M386.3,708.9L363.9,674L386.3,708.9z"/>
<path class="st0" d="M396.3,953.1l-10-244.2L396.3,953.1z"/>
<path class="st0" d="M104.8,564.4l-19.9,10L104.8,564.4z"/>
<path class="st0" d="M336.5,746.3l-5-17.4L336.5,746.3z"/>
<path class="st0" d="M331.5,728.8l-14.9-22.4L331.5,728.8z"/>
<path class="st0" d="M316.5,706.4l-17.4-10L316.5,706.4z"/>
<path class="st0" d="M299.1,696.4l-10,2.5L299.1,696.4z"/>
<path class="st0" d="M289.1,698.9l-7.5,10L289.1,698.9z"/>
<path class="st0" d="M281.7,708.9l2.5,14.9L281.7,708.9z"/>
<path class="st0" d="M284.2,723.9l10,19.9L284.2,723.9z"/>
<path class="st0" d="M294.1,743.8l17.4,17.4L294.1,743.8z"/>
<path class="st0" d="M311.6,761.2l14.9,2.5L311.6,761.2z"/>
<path class="st0" d="M326.5,763.7l5-2.5L326.5,763.7z"/>
<path class="st0" d="M331.5,761.2l5-10L331.5,761.2z"/>
<path class="st0" d="M336.5,751.3v-5V751.3z"/>
<path class="st0" d="M346.4,943.1l-5-17.4L346.4,943.1z"/>
<path class="st0" d="M341.5,925.7l-14.9-22.4L341.5,925.7z"/>
<path class="st0" d="M326.5,903.2l-17.4-10L326.5,903.2z"/>
<path class="st0" d="M309.1,893.3l-12.5,2.5L309.1,893.3z"/>
<path class="st0" d="M296.6,895.8l-5,10L296.6,895.8z"/>
<path class="st0" d="M291.6,905.7v14.9V905.7z"/>
<path class="st0" d="M291.6,920.7l12.5,19.9L291.6,920.7z"/>
<path class="st0" d="M304.1,940.6l17.4,17.4L304.1,940.6z"/>
<path class="st0" d="M321.5,958l14.9,2.5L321.5,958z"/>
<path class="st0" d="M336.5,960.5l2.5-2.5L336.5,960.5z"/>
<path class="st0" d="M339,958l7.5-10L339,958z"/>
<path class="st0" d="M346.4,948.1v-5V948.1z"/>
<path class="st0" d="M331.5,910.7l7.5,10L331.5,910.7z"/>
<path class="st0" d="M142.1,606.8l7.5,10L142.1,606.8z"/>
<path class="st0" d="M157.1,639.1l-5-17.4L157.1,639.1z"/>
<path class="st0" d="M152.1,621.7l-14.9-19.9L152.1,621.7z"/>
<path class="st0" d="M137.2,601.8l-17.4-12.5L137.2,601.8z"/>
<path class="st0" d="M119.7,589.3l-12.5,2.5L119.7,589.3z"/>
<path class="st0" d="M107.3,591.8l-5,10L107.3,591.8z"/>
<path class="st0" d="M102.3,601.8l2.5,14.9L102.3,601.8z"/>
<path class="st0" d="M104.8,616.7l10,22.4L104.8,616.7z"/>
<path class="st0" d="M114.7,639.1l17.4,14.9L114.7,639.1z"/>
<path class="st0" d="M132.2,654.1l14.9,2.5L132.2,654.1z"/>
<path class="st0" d="M147.1,656.6h2.5H147.1z"/>
<path class="st0" d="M149.6,656.6l7.5-10L149.6,656.6z"/>
<path class="st0" d="M157.1,646.6v-7.5V646.6z"/>
<path class="st0" d="M324,713.9l5,10L324,713.9z"/>
<path class="st0" d="M124.7,908.2l-5-27.4L124.7,908.2z"/>
<path class="st0" d="M119.7,880.8l-14.9-27.4L119.7,880.8z"/>
<path class="st0" d="M104.8,853.4L79.9,826L104.8,853.4z"/>
<path class="st0" d="M79.9,826l-22.4-12.5L79.9,826z"/>
<path class="st0" d="M57.4,813.5L40,811.1L57.4,813.5z"/>
<path class="st0" d="M40,811.1l-7.5,5L40,811.1z"/>
<path class="st0" d="M32.5,816l-10,10L32.5,816z"/>
<path class="st0" d="M22.6,826l-2.5,19.9L22.6,826z"/>
<path class="st0" d="M20.1,845.9l5,24.9L20.1,845.9z"/>
<path class="st0" d="M25,870.8l15,29.9L25,870.8z"/>
<path class="st0" d="M40,900.7l24.9,24.9L40,900.7z"/>
<path class="st0" d="M64.9,925.7l22.4,12.5L64.9,925.7z"/>
<path class="st0" d="M87.3,938.1l17.4,2.5L87.3,938.1z"/>
<path class="st0" d="M104.8,940.6l7.5-2.5L104.8,940.6z"/>
<path class="st0" d="M112.2,938.1l10-12.5L112.2,938.1z"/>
<path class="st0" d="M122.2,925.7l2.5-17.4L122.2,925.7z"/>
<path class="st0" d="M264.2,836l-39.9,27.4L264.2,836z"/>
<path class="st0" d="M182,713.9l-37.4,24.9L182,713.9z"/>
<path class="st0" d="M52.4,801.1L32.5,816L52.4,801.1z"/>
<path class="st0" d="M122.2,905.7l-5-24.9L122.2,905.7z"/>
<path class="st0" d="M117.2,880.8l-14.9-27.4L117.2,880.8z"/>
<path class="st0" d="M102.3,853.4L79.9,826L102.3,853.4z"/>
<path class="st0" d="M79.9,826l-22.4-10L79.9,826z"/>
<path class="st0" d="M57.4,816L40,813.5L57.4,816z"/>
<path class="st0" d="M40,813.5l-7.5,2.5L40,813.5z"/>
<path class="st0" d="M32.5,816L25,828.5L32.5,816z"/>
<path class="st0" d="M25,828.5l-2.5,19.9L25,828.5z"/>
<path class="st0" d="M22.6,848.4l5,24.9L22.6,848.4z"/>
<path class="st0" d="M27.5,873.3l14.9,27.4L27.5,873.3z"/>
<path class="st0" d="M42.5,900.7l24.9,24.9L42.5,900.7z"/>
<path class="st0" d="M67.4,925.7l22.4,12.5L67.4,925.7z"/>
<path class="st0" d="M89.8,938.1h17.4H89.8z"/>
<path class="st0" d="M107.3,938.1l5-2.5L107.3,938.1z"/>
<path class="st0" d="M112.2,935.6l7.5-12.5L112.2,935.6z"/>
<path class="st0" d="M119.7,923.2l2.5-17.4L119.7,923.2z"/>
<path class="st0" d="M134.7,923.2l-22.4,14.9L134.7,923.2z"/>
<path class="st0" d="M276.7,806.1l-5-24.9L276.7,806.1z"/>
<path class="st0" d="M271.7,781.2l-14.9-29.9L271.7,781.2z"/>
<path class="st0" d="M256.7,751.3l-24.9-24.9L256.7,751.3z"/>
<path class="st0" d="M231.8,726.3l-22.4-14.9L231.8,726.3z"/>
<path class="st0" d="M209.4,711.4H192H209.4z"/>
<path class="st0" d="M192,711.4l-10,2.5L192,711.4z"/>
<path class="st0" d="M264.2,836l10-12.5L264.2,836z"/>
<path class="st0" d="M274.2,823.5l2.5-17.4L274.2,823.5z"/>
<path class="st0" d="M74.9,823.5l7.5,27.4L74.9,823.5z"/>
<path class="st0" d="M82.3,850.9l19.9,27.4L82.3,850.9z"/>
<path class="st0" d="M102.3,878.3l19.9,14.9L102.3,878.3z"/>
<path class="st0" d="M72.4,821l7.5,27.4L72.4,821z"/>
<path class="st0" d="M79.9,848.4l17.4,29.9L79.9,848.4z"/>
<path class="st0" d="M97.3,878.3l24.9,19.9L97.3,878.3z"/>
<path class="st0" d="M147.1,895.8l-5-27.4L147.1,895.8z"/>
<path class="st0" d="M142.1,868.4l-14.9-29.9L142.1,868.4z"/>
<path class="st0" d="M127.2,838.5l-24.9-27.4L127.2,838.5z"/>
<path class="st0" d="M102.3,811.1l-22.4-12.5L102.3,811.1z"/>
<path class="st0" d="M79.9,798.6L60,796.1L79.9,798.6z"/>
<path class="st0" d="M59.9,796.1l-10,2.5L59.9,796.1z"/>
<path class="st0" d="M50,798.6l-7.5,10L50,798.6z"/>
<path class="st0" d="M124.7,930.6l10-5L124.7,930.6z"/>
<path class="st0" d="M134.7,925.7l10-12.5L134.7,925.7z"/>
<path class="st0" d="M144.6,913.2l2.5-17.4L144.6,913.2z"/>
<path class="st0" d="M132.2,743.8L50,798.6L132.2,743.8z"/>
<path class="st0" d="M216.9,870.8l-82.2,54.8L216.9,870.8z"/>
<path class="st0" d="M229.3,841l-5-27.4L229.3,841z"/>
<path class="st0" d="M224.4,813.5l-14.9-29.9L224.4,813.5z"/>
<path class="st0" d="M209.4,783.6l-24.9-27.4L209.4,783.6z"/>
<path class="st0" d="M184.5,756.2l-22.4-12.5L184.5,756.2z"/>
<path class="st0" d="M162.1,743.8l-19.9-2.5L162.1,743.8z"/>
<path class="st0" d="M142.1,741.3l-10,2.5L142.1,741.3z"/>
<path class="st0" d="M216.9,870.8l10-12.5L216.9,870.8z"/>
<path class="st0" d="M226.8,858.4l2.5-17.4L226.8,858.4z"/>
<path class="st0" d="M144.6,893.3l-5-24.9L144.6,893.3z"/>
<path class="st0" d="M139.6,868.4l-14.9-29.9L139.6,868.4z"/>
<path class="st0" d="M124.7,838.5l-22.4-24.9L124.7,838.5z"/>
<path class="st0" d="M102.3,813.5l-24.9-14.9L102.3,813.5z"/>
<path class="st0" d="M77.4,798.6H59.9H77.4z"/>
<path class="st0" d="M59.9,798.6l-7.5,2.5L59.9,798.6z"/>
<path class="st0" d="M134.7,923.2l7.5-12.5L134.7,923.2z"/>
<path class="st0" d="M142.1,910.7l2.5-17.4L142.1,910.7z"/>
<path class="st0" d="M1021.6,155.8l14.9-2.5L1021.6,155.8z"/>
<path class="st0" d="M1036.6,153.3l17.4,5L1036.6,153.3z"/>
<path class="st0" d="M1054,158.3l22.4,14.9L1054,158.3z"/>
<path class="st0" d="M1076.4,173.2l19.9,24.9L1076.4,173.2z"/>
<path class="st0" d="M1096.4,198.2l14.9,32.4L1096.4,198.2z"/>
<path class="st0" d="M1111.3,230.5l2.5,27.4L1111.3,230.5z"/>
<path class="st0" d="M1113.8,258l-5,14.9L1113.8,258z"/>
<path class="st0" d="M1108.8,272.9l-5,7.5L1108.8,272.9z"/>
<path class="st0" d="M1011.7,163.3l10-7.5L1011.7,163.3z"/>
<path class="st0" d="M1091.4,287.9l12.5-7.5L1091.4,287.9z"/>
<path class="st0" d="M999.2,168.3l14.9-5L999.2,168.3z"/>
<path class="st0" d="M1014.1,163.3l19.9,5L1014.1,163.3z"/>
<path class="st0" d="M1034.1,168.3l19.9,14.9L1034.1,168.3z"/>
<path class="st0" d="M1054,183.2l22.4,24.9L1054,183.2z"/>
<path class="st0" d="M1076.4,208.1l14.9,34.9L1076.4,208.1z"/>
<path class="st0" d="M1091.4,243l5,27.4L1091.4,243z"/>
<path class="st0" d="M1096.4,270.4l-5,17.4L1096.4,270.4z"/>
<path class="st0" d="M1091.4,287.9l-7.5,7.5L1091.4,287.9z"/>
<path class="st0" d="M959.3,195.7l39.9-27.4L959.3,195.7z"/>
<path class="st0" d="M1078.9,300.3l5-5L1078.9,300.3z"/>
<path class="st0" d="M827.3,168.3l-52.3-25L827.3,168.3z"/>
<path class="st0" d="M775,143.3l-62.3-19.9L775,143.3z"/>
<path class="st0" d="M712.7,123.4L645.4,111L712.7,123.4z"/>
<path class="st0" d="M645.4,111l-77.2-5L645.4,111z"/>
<path class="st0" d="M568.2,106l-77.2,7.5L568.2,106z"/>
<path class="st0" d="M490.9,113.5l-74.7,14.9L490.9,113.5z"/>
<path class="st0" d="M416.2,128.4l-64.8,22.4L416.2,128.4z"/>
<path class="st0" d="M351.4,150.8l-57.3,29.9L351.4,150.8z"/>
<path class="st0" d="M294.1,180.7l-44.8,32.4L294.1,180.7z"/>
<path class="st0" d="M249.3,213.1l-34.9,37.4L249.3,213.1z"/>
<path class="st0" d="M214.4,250.5L192,287.9L214.4,250.5z"/>
<path class="st0" d="M192,287.9l-12.5,37.4L192,287.9z"/>
<path class="st0" d="M179.5,325.2l-2.5,37.4L179.5,325.2z"/>
<path class="st0" d="M177,362.6l5,39.9L177,362.6z"/>
<path class="st0" d="M182,402.5l17.4,37.4L182,402.5z"/>
<path class="st0" d="M199.4,439.8l27.4,34.9L199.4,439.8z"/>
<path class="st0" d="M226.8,474.7l34.9,32.4L226.8,474.7z"/>
<path class="st0" d="M261.7,507.1l44.8,27.4L261.7,507.1z"/>
<path class="st0" d="M306.6,534.5l54.8,22.4L306.6,534.5z"/>
<path class="st0" d="M361.4,556.9l64.8,17.4L361.4,556.9z"/>
<path class="st0" d="M426.2,574.4l72.3,10L426.2,574.4z"/>
<path class="st0" d="M498.4,584.3l77.2,2.5L498.4,584.3z"/>
<path class="st0" d="M575.6,586.8l77.2-10L575.6,586.8z"/>
<path class="st0" d="M652.9,576.9l72.3-17.4L652.9,576.9z"/>
<path class="st0" d="M725.1,559.4l62.3-27.4L725.1,559.4z"/>
<path class="st0" d="M787.4,532l52.3-29.9L787.4,532z"/>
<path class="st0" d="M839.7,502.1l39.9-34.9L839.7,502.1z"/>
<path class="st0" d="M879.6,467.2l29.9-37.4L879.6,467.2z"/>
<path class="st0" d="M909.5,429.9l19.9-37.4L909.5,429.9z"/>
<path class="st0" d="M929.4,392.5l10-39.9L929.4,392.5z"/>
<path class="st0" d="M939.4,352.6v-22.4V352.6z"/>
<path class="st0" d="M939.4,330.2l-5-39.9L939.4,330.2z"/>
<path class="st0" d="M934.4,290.3L917,255.5L934.4,290.3z"/>
<path class="st0" d="M917,255.5l-24.9-34.9L917,255.5z"/>
<path class="st0" d="M892.1,220.6l-37.4-32.4L892.1,220.6z"/>
<path class="st0" d="M854.7,188.2l-27.4-19.9L854.7,188.2z"/>
<path class="st0" d="M575.6,357.6l-14.9-2.5L575.6,357.6z"/>
<path class="st0" d="M560.7,355.1l-17.4,2.5L560.7,355.1z"/>
<path class="st0" d="M543.3,357.6l-7.5,10L543.3,357.6z"/>
<path class="st0" d="M535.8,367.6v2.5V367.6z"/>
<path class="st0" d="M535.8,370.1l5,10L535.8,370.1z"/>
<path class="st0" d="M540.8,380l7.5,2.5L540.8,380z"/>
<path class="st0" d="M570.7,382.5l12.5-10L570.7,382.5z"/>
<path class="st0" d="M583.1,372.6v-5V372.6z"/>
<path class="st0" d="M583.1,367.6l-5-7.5L583.1,367.6z"/>
<path class="st0" d="M578.1,360.1l-2.5-2.5L578.1,360.1z"/>
<path class="st0" d="M600.6,342.7l-22.4-7.5L600.6,342.7z"/>
<path class="st0" d="M578.1,335.2l-29.9-2.5L578.1,335.2z"/>
<path class="st0" d="M548.2,332.7l-24.9,10L548.2,332.7z"/>
<path class="st0" d="M523.3,342.7l-17.4,12.5L523.3,342.7z"/>
<path class="st0" d="M505.9,355.1l-2.5,5L505.9,355.1z"/>
<path class="st0" d="M615.5,355.1L603,342.6L615.5,355.1z"/>
<path class="st0" d="M603.1,342.7h-2.5H603.1z"/>
<path class="st0" d="M600.6,320.2l-22.4-10L600.6,320.2z"/>
<path class="st0" d="M578.1,310.3h-29.9H578.1z"/>
<path class="st0" d="M548.2,310.3l-27.4,10L548.2,310.3z"/>
<path class="st0" d="M520.8,320.2l-14.9,12.5L520.8,320.2z"/>
<path class="st0" d="M505.9,332.7l-7.5,14.9L505.9,332.7z"/>
<path class="st0" d="M498.4,347.6v2.5V347.6z"/>
<path class="st0" d="M498.4,350.1l7.5,12.5L498.4,350.1z"/>
<path class="st0" d="M505.9,362.6l14.9,12.5L505.9,362.6z"/>
<path class="st0" d="M520.8,375.1l22.4,7.5L520.8,375.1z"/>
<path class="st0" d="M543.3,382.5h29.9H543.3z"/>
<path class="st0" d="M573.2,382.5l24.9-10L573.2,382.5z"/>
<path class="st0" d="M598.1,372.6l14.9-14.9L598.1,372.6z"/>
<path class="st0" d="M613,357.6l5-12.5L613,357.6z"/>
<path class="st0" d="M618,345.2l-7.5-14.9L618,345.2z"/>
<path class="st0" d="M610.5,330.2l-10-10L610.5,330.2z"/>
<path class="st0" d="M478.5,1100.1l-19.9-423.5L478.5,1100.1z"/>
<path class="st0" d="M665.3,669l413.6-274L665.3,669z"/>
<path class="st0" d="M1076.4,265.4L657.9,16.3L1076.4,265.4z"/>
<path class="st0" d="M478.5,1100.1l206.8-7.5L478.5,1100.1z"/>
<path class="st0" d="M657.9,16.3l-206.8,7.5L657.9,16.3z"/>
<path class="st0" d="M451.1,23.8l-413.6,274L451.1,23.8z"/>
<path class="st0" d="M458.6,676.5l206.8-7.5L458.6,676.5z"/>
<path class="st0" d="M40,427.4l418.6,249.1L40,427.4z"/>
<path class="st0" d="M685.3,1092.6l413.6-274.1L685.3,1092.6z"/>
<path class="st0" d="M54.9,796.1L40,427.4L54.9,796.1z"/>
<path class="st0" d="M1078.9,395l-2.5-129.6L1078.9,395z"/>
<path class="st0" d="M685.3,1092.6l-20-423.6L685.3,1092.6z"/>
<path class="st0" d="M157.1,910.7L478.5,1100L157.1,910.7z"/>
<path class="st0" d="M1098.9,818.5l-20-423.5L1098.9,818.5z"/>
<path class="st0" d="M37.5,297.8L40,427.4L37.5,297.8z"/>
<path class="st0" d="M827.3,168.3l-52.3-25L827.3,168.3z"/>
<path class="st0" d="M775,143.3l-62.3-19.9L775,143.3z"/>
<path class="st0" d="M712.7,123.4L645.4,111L712.7,123.4z"/>
<path class="st0" d="M645.4,111l-77.2-5L645.4,111z"/>
<path class="st0" d="M568.2,106l-77.2,7.5L568.2,106z"/>
<path class="st0" d="M490.9,113.5l-74.7,14.9L490.9,113.5z"/>
<path class="st0" d="M416.2,128.4l-64.8,22.4L416.2,128.4z"/>
<path class="st0" d="M351.4,150.8l-57.3,29.9L351.4,150.8z"/>
<path class="st0" d="M294.1,180.7l-44.8,32.4L294.1,180.7z"/>
<path class="st0" d="M249.3,213.1l-34.9,37.4L249.3,213.1z"/>
<path class="st0" d="M214.4,250.5L192,287.9L214.4,250.5z"/>
<path class="st0" d="M192,287.9l-12.5,37.4L192,287.9z"/>
<path class="st0" d="M179.5,325.2l-2.5,37.4L179.5,325.2z"/>
<path class="st0" d="M177,362.6l5,39.9L177,362.6z"/>
<path class="st0" d="M182,402.5l17.4,37.4L182,402.5z"/>
<path class="st0" d="M199.4,439.8l27.4,34.9L199.4,439.8z"/>
<path class="st0" d="M226.8,474.7l34.9,32.4L226.8,474.7z"/>
<path class="st0" d="M261.7,507.1l44.8,27.4L261.7,507.1z"/>
<path class="st0" d="M306.6,534.5l54.8,22.4L306.6,534.5z"/>
<path class="st0" d="M361.4,556.9l64.8,17.4L361.4,556.9z"/>
<path class="st0" d="M426.2,574.4l72.3,10L426.2,574.4z"/>
<path class="st0" d="M498.4,584.3l77.2,2.5L498.4,584.3z"/>
<path class="st0" d="M575.6,586.8l77.2-10L575.6,586.8z"/>
<path class="st0" d="M652.9,576.9l72.3-17.4L652.9,576.9z"/>
<path class="st0" d="M725.1,559.4l62.3-27.4L725.1,559.4z"/>
<path class="st0" d="M787.4,532l52.3-29.9L787.4,532z"/>
<path class="st0" d="M839.7,502.1l39.9-34.9L839.7,502.1z"/>
<path class="st0" d="M879.6,467.2l29.9-37.4L879.6,467.2z"/>
<path class="st0" d="M909.5,429.9l19.9-37.4L909.5,429.9z"/>
<path class="st0" d="M929.4,392.5l10-39.9L929.4,392.5z"/>
<path class="st0" d="M939.4,352.6v-22.4V352.6z"/>
<path class="st0" d="M939.4,330.2l-5-39.9L939.4,330.2z"/>
<path class="st0" d="M934.4,290.3L917,255.5L934.4,290.3z"/>
<path class="st0" d="M917,255.5l-24.9-34.9L917,255.5z"/>
<path class="st0" d="M892.1,220.6l-37.4-32.4L892.1,220.6z"/>
<path class="st0" d="M854.7,188.2l-27.4-19.9L854.7,188.2z"/>
</svg>
