<svg id="Слой_1" data-name="Слой 1" xmlns="http://www.w3.org/2000/svg" viewBox="0 0 299.06 86.87"><defs><style>.cls-1{fill:#00352b;}</style></defs><path class="cls-1" d="M278.45,396.91l.08-.07S278.31,396.71,278.45,396.91Z" transform="translate(-148.11 -377.51)"/><path class="cls-1" d="M443.58,413.17Z" transform="translate(-148.11 -377.51)"/><path class="cls-1" d="M218.22,448.11C217,433.6,214.77,419.8,202.08,418a20.26,20.26,0,0,0,8.41-4.34q5.55-4.89,5.56-13.2a18.81,18.81,0,0,0-7.22-14.37,32.07,32.07,0,0,0-20.67-7c-5.55.14-11.57,1.38-17.14,2.48a8.07,8.07,0,0,0-4.84-3.15c-4.67-1.22-7.51.1-11.57.2a12.11,12.11,0,0,1-6.11-1.17c-.06,0-.43.36-.39.52.3,1.09,2.93,6,5.59,8.16a15.27,15.27,0,0,0,12.78,3.35,20.94,20.94,0,0,0,5.84-2.58.66.66,0,0,1,0,.15,16.27,16.27,0,0,1-5,3.78,15.23,15.23,0,0,1-8,1.2,42,42,0,0,1,.3,7.69l0,51.38a1.4,1.4,0,0,0,1.4,1.4l14.28,0a1.41,1.41,0,0,0,1.4-1.41V423h0v-3.85a23.82,23.82,0,0,1,13.46,4.43q4.28,2.7,5.76,12.33c1,6.43,2.11,11.83,4.67,16.31s7.42,6.47,13.71,6.88a98.38,98.38,0,0,0,12.24-.4l-.17-.71C225.32,458,219,457.54,218.22,448.11Zm-21.82-37q-2.78,4.11-9.12,4.46a71.6,71.6,0,0,1-10.58-.05V394.8a13.84,13.84,0,0,1,2.75-8.36,8.92,8.92,0,0,1,6.88-3.52q6.73,0,9.84,5.28a24,24,0,0,1,3.11,12.41A18.88,18.88,0,0,1,196.4,411.08Z" transform="translate(-148.11 -377.51)"/><path class="cls-1" d="M328.23,400.87c-3.6-2.8-8.92-5.07-18.26-4.66-6.79.29-22.51,3.62-31.49.73,0,0,0,0,0,0l-.33.29c1.32,2,6.69,2.76,6.11,11.12l.18,54.64a1.39,1.39,0,0,0,1.38,1.38l14.43,0A1.38,1.38,0,0,0,301.6,463c0-3.73-.08-13.8-.15-15.15,2.27,4.8,15.71,6.43,23.68,1.76,4.66-2.74,12.33-11,10.85-32.55C335.67,411.26,331.84,403.68,328.23,400.87ZM316.9,441.72c-1.53,5.57-4.46,7.27-8.82,7-3.42-.23-6.38-2.4-6.59-7.84l-.13-26.62a24.89,24.89,0,0,1,1-8.28,7.67,7.67,0,0,1,4.81-5c6.86-.91,9.33,3.22,10.11,10.25C318.4,423,318.36,434.51,316.9,441.72Z" transform="translate(-148.11 -377.51)"/><path class="cls-1" d="M384.79,400.05a27.36,27.36,0,0,0-10.3-3.46,43.56,43.56,0,0,0-22.3,2.72v3.28l.34-.27a17.67,17.67,0,0,1,9.94-3.41q6.61.1,9.73,3.92T375.31,415q-3.93-2.34-10.4-2.34c-20.1-1.42-24.17,11.76-24.16,19.81a19.67,19.67,0,0,0,6,14.68c5.18,5.1,19.31,8.13,28.47.92a18.45,18.45,0,0,0,4.29-5.4c.23-.17-1.47,8.39,5.65,9.37,3.19.44,8.33-.78,8.33-1.18l.05-34a22.17,22.17,0,0,0-2.14-10.12A15.75,15.75,0,0,0,384.79,400.05Zm-11.34,43.83a6.26,6.26,0,0,1-5.92,3.89,7,7,0,0,1-6.46-4.47q-1.86-4.08-1.86-12.13.09-8.61,2.44-12.11c1.56-2.32,2.54-3.45,5.78-3.76a7.22,7.22,0,0,1,6.94,5.45,51.43,51.43,0,0,1,.84,11Q375.21,440.39,373.45,443.88Z" transform="translate(-148.11 -377.51)"/><path class="cls-1" d="M412,410.83c-4.3-11.46,15.79-15.82,23.43-5.64v-3.75c-7-6.84-35.56-10.95-35,12.17a12.63,12.63,0,0,0,2.71,7.61c5,6.75,14.31,8.29,19.71,10.21,13.55,4.83,3.73,23.71-16.33,14.05a11.81,11.81,0,0,1-2.33-1.32v3.07c8,6.16,19,6.08,23.57,5.7,14.8-1.24,18.81-11.44,19.27-15.64C449.75,412.45,415.24,419.4,412,410.83Z" transform="translate(-148.11 -377.51)"/><path class="cls-1" d="M270.74,400.71a30.31,30.31,0,0,0-16.9-4.81,35.12,35.12,0,0,0-21.15,6.55q-9.08,6.56-9.07,21.43c.44,8.77,4.37,18.15,9.76,22.5,5.68,4.6,12.1,6.05,19,6.16a29,29,0,0,0,11.51-2.17v-1.89a19,19,0,0,1-5.62.81c-15.63-.13-14.11-14.41-14.41-20,2.94,2.12,7.84,3.25,12.44,3.25,8.68,0,13.75-3.28,17-6.39a14.62,14.62,0,0,0,4.1-9.44,25.19,25.19,0,0,0-.13-5.28C276.93,408.32,275,403.35,270.74,400.71Zm-10,10.63c-1.44,18.17-17,14.27-17,14.27s-.31-6.89-.31-13.25c.14-5.19,1.1-8.75,2.91-10.67a8.77,8.77,0,0,1,6.67-2.88,6.47,6.47,0,0,1,5.58,3.08A14.55,14.55,0,0,1,260.72,411.34Z" transform="translate(-148.11 -377.51)"/></svg>